<?xml version="1.0" encoding="UTF-8"?>
<!DOCTYPE svg PUBLIC "-//W3C//DTD SVG 1.1//EN" "http://www.w3.org/Graphics/SVG/1.1/DTD/svg11.dtd">
<!-- Creator: CorelDRAW Home & Student X7 -->
<svg xmlns="http://www.w3.org/2000/svg" xml:space="preserve" width="60" height="60" version="1.1" style="shape-rendering:geometricPrecision; text-rendering:geometricPrecision; image-rendering:optimizeQuality; fill-rule:evenodd; clip-rule:evenodd"
viewBox="0 0 1058 1058"
 xmlns:xlink="http://www.w3.org/1999/xlink">
 <defs>
  <style type="text/css">
   <![CDATA[
    .fil2 {fill:none}
    .fil0 {fill:#1876D2}
    .fil1 {fill:#1876D2;fill-rule:nonzero}
   ]]>
  </style>
 </defs>
 <g id="Layer_x0020_1">
  <metadata id="CorelCorpID_0Corel-Layer"/>
  <path class="fil0" d="M529 184c-190,0 -345,155 -345,345 0,191 155,345 345,345 190,0 345,-154 345,-345 0,-190 -155,-345 -345,-345zm0 769l0 0c-233,0 -423,-190 -423,-424 0,-233 190,-423 423,-423 234,0 423,190 423,423 0,234 -189,424 -423,424z"/>
  <path class="fil1" d="M529 600c-19,0 -35,-19 -35,-41l0 -271c0,-23 16,-41 35,-41 20,0 35,18 35,41l0 271c0,22 -15,41 -35,41z"/>
  <path class="fil1" d="M426 706c-10,0 -20,-4 -27,-11 -14,-15 -14,-39 0,-54l101 -101c15,-14 39,-14 54,0 14,15 14,39 0,54l-101 101c-8,7 -18,11 -27,11z"/>
  <rect class="fil2" width="1058" height="1058"/>
 </g>
</svg>
