<?xml version="1.0" encoding="UTF-8"?>
<!DOCTYPE svg PUBLIC "-//W3C//DTD SVG 1.1//EN" "http://www.w3.org/Graphics/SVG/1.1/DTD/svg11.dtd">
<!-- Creator: CorelDRAW Home & Student X7 -->
<svg xmlns="http://www.w3.org/2000/svg" xml:space="preserve" width="60" height="60" version="1.1" style="shape-rendering:geometricPrecision; text-rendering:geometricPrecision; image-rendering:optimizeQuality; fill-rule:evenodd; clip-rule:evenodd"
viewBox="0 0 1058 1058"
 xmlns:xlink="http://www.w3.org/1999/xlink">
 <defs>
  <style type="text/css">
   <![CDATA[
    .fil1 {fill:none}
    .fil0 {fill:#1876D2}
   ]]>
  </style>
 </defs>
 <g id="Layer_x0020_1">
  <metadata id="CorelCorpID_0Corel-Layer"/>
  <path class="fil0" d="M223 316c0,124 60,256 160,357l3 3c101,101 231,159 356,160 7,-6 14,-13 21,-19 32,-33 57,-71 73,-114 0,0 -1,-3 -2,-7 -50,-22 -90,-35 -157,-49l-7 1 -33 51c-20,32 -73,37 -110,9 -32,-23 -65,-50 -96,-80 -30,-32 -57,-64 -81,-96 -16,-22 -22,-47 -18,-70 4,-18 14,-32 28,-41l50 -32c1,-3 2,-7 2,-9 -14,-52 -34,-110 -51,-156 -3,-1 -6,-1 -8,-1 -41,15 -79,40 -111,73 -7,6 -13,13 -19,20zm520 584l0 0c-142,0 -289,-66 -403,-180l-2 -2c-118,-119 -183,-269 -179,-414l0 -10 7 -9c10,-13 20,-24 31,-35 38,-38 84,-68 135,-88 6,-2 13,-3 21,-3 17,0 56,9 65,36 18,48 40,111 56,171 4,17 0,58 -24,73l-56 36c0,0 0,9 7,19 22,30 48,60 76,88 28,28 57,53 87,75 6,4 12,7 18,7l19 -28 18 -28c16,-24 55,-25 59,-25 5,0 9,0 13,2 74,16 118,30 175,56 25,11 41,57 30,86 -20,51 -49,96 -88,135 -11,10 -23,21 -35,31l-9 6 -21 1z"/>
  <rect class="fil1" width="1058" height="1058"/>
 </g>
</svg>
